#!OML:ASF F:\VICON\USERDATA\INSTALL\rory3\rory3.ASF
:FULLY-SPECIFIED
:DEGREES
403
root 2.64641 9.82824 -4.48956 -16.5356 -47.0412 5.2187
lowerback 27.8473 2.34997 1.12044
upperback 11.7 2.89385 3.33164
thorax -2.41634 1.14191 2.1726
lowerneck -22.2965 10.1199 -4.29403
upperneck 11.2463 15.9042 -5.90739
head 7.21455 6.83382 0.69976
rclavicle 4.37326e-014 -3.81667e-014
rhumerus -30.7894 21.1817 -78.8716
rradius 107.075
rwrist 40.4228
rhand -39.2715 13.0307
rfingers 7.12502
rthumb -12.2654 -16.5896
lclavicle 4.37326e-014 -3.81667e-014
lhumerus -20.6429 -36.0923 86.4454
lradius 87.5928
lwrist -20.2513
lhand -40.6299 11.4774
lfingers 7.12502
lthumb -13.5749 41.0148
rfemur -84.2306 -15.7593 21.8829
rtibia 102.666
rfoot -1.57599 3.40748
rtoes 12.9327
lfemur -81.7407 13.9196 -23.6243
ltibia 99.4375
lfoot -0.918698 -12.4683
ltoes -3.61773
404
root 2.64038 9.83221 -4.48463 -16.432 -46.9887 5.2039
lowerback 27.8167 2.36076 1.22747
upperback 11.691 2.93235 3.25894
thorax -2.40418 1.1677 2.02114
lowerneck -22.4376 10.1845 -4.21258
upperneck 11.5144 15.9973 -5.86238
head 7.32881 6.86565 0.730934
rclavicle -3.97569e-015 -6.52014e-014
rhumerus -30.912 20.8593 -78.9406
rradius 107.11
rwrist 40.4321
rhand -39.1983 13.0508
rfingers 7.12502
rthumb -12.1949 -16.5737
lclavicle -3.97569e-015 -6.52014e-014
lhumerus -20.5912 -36.2332 86.4102
lradius 87.666
lwrist -20.0915
lhand -40.7411 11.4638
lfingers 7.12502
lthumb -13.6822 40.994
rfemur -84.3067 -15.8881 21.9287
rtibia 102.671
rfoot -1.56688 3.49446
rtoes 13.1434
lfemur -81.7915 13.7805 -23.6293
ltibia 99.4703
lfoot -0.971154 -12.4171
ltoes -3.7149
405
root 2.63348 9.83555 -4.48379 -16.306 -46.9481 5.22624
lowerback 27.7495 2.43217 1.25349
upperback 11.6803 3.02928 3.20394
thorax -2.3837 1.21991 1.9193
lowerneck -22.464 10.2309 -4.27425
upperneck 11.5724 16.0566 -5.70138
head 7.33196 6.90465 0.799196
rclavicle -4.37326e-014 2.8625e-014
rhumerus -31.0585 20.5235 -78.9767
rradius 107.231
rwrist 40.4003
rhand -39.0628 13.0617
rfingers 7.12502
rthumb -12.0642 -16.5706
lclavicle -4.37326e-014 2.8625e-014
lhumerus -20.5865 -36.377 86.4639
lradius 87.825
lwrist -20.0267
lhand -40.7326 11.565
lfingers 7.12502
lthumb -13.6739 41.0958
rfemur -84.458 -15.9281 21.9655
rtibia 102.688
rfoot -1.58531 3.45746
rtoes 12.6756
lfemur -81.9223 13.6909 -23.6678
ltibia 99.4794
lfoot -0.949412 -12.225
ltoes -3.414
406
root 2.62504 9.83747 -4.48196 -16.1093 -46.9055 5.19885
lowerback 27.6461 2.49168 1.20922
upperback 11.6347 3.10002 3.22217
thorax -2.39252 1.25556 1.94543
lowerneck -22.3155 10.2824 -4.3225
upperneck 11.4735 16.1158 -5.67479
head 7.26888 6.94508 0.809864
rclavicle -6.75868e-014 3.18055e-015
rhumerus -31.2823 20.334 -79.0042
rradius 107.344
rwrist 40.4706
rhand -38.94 12.8382
rfingers 7.12502
rthumb -11.9458 -16.8009
lclavicle -6.75868e-014 3.18055e-015
lhumerus -20.677 -36.289 86.6506
lradius 87.9719
lwrist -20.0454
lhand -40.5867 11.3008
lfingers 7.12502
lthumb -13.5333 40.841
rfemur -84.6784 -15.9761 22.063
rtibia 102.709
rfoot -1.62037 3.45847
rtoes 12.3804
lfemur -82.1362 13.5854 -23.6477
ltibia 99.5005
lfoot -0.896051 -12.1307
ltoes -3.13645
407
root 2.61932 9.84118 -4.48258 -16.1095 -46.8854 5.3634
lowerback 27.5515 2.55784 1.05355
upperback 11.6674 3.14175 3.1888
thorax -2.32023 1.27291 1.98878
lowerneck -22.268 10.3295 -4.43946
upperneck 11.3955 16.1868 -5.59104
head 7.21817 6.98981 0.854302
rclavicle -1.27222e-013 9.85972e-014
rhumerus -31.239 20.1892 -79.0114
rradius 107.314
rwrist 40.5933
rhand -38.9525 12.7379
rfingers 7.12502
rthumb -11.9578 -16.9006
lclavicle -1.27222e-013 9.85972e-014
lhumerus -20.6026 -36.1884 86.7489
lradius 88.0855
lwrist -20.0097
lhand -40.5211 11.1605
lfingers 7.12502
lthumb -13.4701 40.7049
rfemur -84.828 -16.0062 22.0385
rtibia 102.715
rfoot -1.6126 3.46672
rtoes 12.0185
lfemur -82.2147 13.5281 -23.7471
ltibia 99.4801
lfoot -0.995711 -12.1257
ltoes -3.26807
